<?xml version="1.0" encoding="UTF-8"?>
<svg id="Camada_1" xmlns="http://www.w3.org/2000/svg" viewBox="0 0 764 359.48">
  <defs>
    <style>
      .cls-1 {
        letter-spacing: 1em;
      }

      .cls-2 {
        font-family: Montserrat-Regular, Montserrat;
        font-size: 24px;
      }

      .cls-2, .cls-3 {
        fill: #fff;
      }

      .cls-4 {
        letter-spacing: 1em;
      }

      .cls-5 {
        letter-spacing: .99em;
      }

      .cls-6 {
        letter-spacing: 1em;
      }

      .cls-7 {
        letter-spacing: .98em;
      }
    </style>
  </defs>
  <g>
    <g>
      <path class="cls-3" d="M99.21,43.55v42.48c-4.06-8.26-13.58-12.92-28.36-14.18h-25.5v52.47h42.81v28.36h-42.81v60.92h25.5c16.51-2.06,25.9-6.79,28.36-14.18v42.55H0c8.26-4.06,12.92-13.58,14.18-28.36V71.85c-2.06-16.51-6.79-25.83-14.18-28.3h99.21Z"/>
      <g>
        <path class="cls-3" d="M203.91,18.37c.09,13.93.18,27.86.28,41.8-5.6-9.48-18.58-10.1-28.24-8.56-1.69.35-2.54.52-4.23.88.26,45.26.52,90.51.79,135.77.84,9.85,4.73,20.67,14.13,25.35-19.77,0-39.55,0-59.32,0,9.62-4.35,13.4-15.32,14.02-25.15-.16-42.99-.32-85.98-.49-128.96-1.65.4-2.48.6-4.13,1.01-9.95,3.29-23.31,9.19-27.84,19.46,0-12.14,0-24.27,0-36.41,31.32-9.93,62.92-18.31,95.05-25.18Z"/>
        <path class="cls-3" d="M559.28,171.54c-.09,14.02-.19,28.04-.28,42.06-32.2,0-64.41,0-96.61,0,10.34-5.79,13.68-18.87,14.33-29.85.24-49.72.49-99.45.73-149.17-.83-10.57-3.85-25.65-14.16-31.17,15.27,1.46,30.47,3.21,45.68,5.25-.35,58.55-.71,117.09-1.06,175.64,9.19.19,13.79.29,22.98.51,9.67-.68,24.01-3.04,28.39-13.27Z"/>
        <path class="cls-3" d="M659.89,43.55c-4.8-.13-12.55,1.55-17.79,7.04-11.43,27.95-22.38,56.07-33,84.33-.09,17.42-.18,34.84-.27,52.27.05,0,.08,0,.13,0,.58,10.12,4.16,21.75,14.05,26.41-19.91,0-39.82,0-59.72,0,6.21-3.01,10.45-8.96,12.7-17.71.06-.28.08-.43.14-.71.61-3.63.91-5.45,1.52-9.07.03,0,.04,0,.07,0,.12-18.13.23-36.25.35-54.38-9.42-29.26-18.62-58.58-27.68-87.95-1.51-4.9-2.27-7.36-3.78-12.29-.03-.03-.04-.05-.07-.08-3.77-7.83-11.68-16.06-19.55-20.02,15.83,2.59,31.62,5.53,47.29,8.98,6.78,24.71,13.66,49.38,20.68,74.02.24.04.36.05.6.09,6.99-21.28,14.11-42.52,21.39-63.7,14.41,4,28.71,8.25,42.96,12.77Z"/>
        <path class="cls-3" d="M333.42,213.6c-15.11,0-30.23,0-45.34,0-.16-31.25-.32-62.51-.48-93.76-11.18.59-22.35,1.24-33.52,1.95.19,30.6.38,61.2.57,91.81-15.11,0-30.23,0-45.34,0,10.16-5.29,13.46-17.84,13.99-28.42-.32-47.34-.63-94.69-.95-142.03-.84-8.83-3.67-23.5-14.35-25.61,15.09-2.94,30.19-5.58,45.38-7.94.17,27.68.34,55.36.52,83.04,11.18-.94,22.35-1.8,33.55-2.57-.14-28.27-.29-56.54-.43-84.81,15.25-1.57,30.49-2.85,45.78-3.84-10.78,5.65-13,20.17-14.23,31.07.18,50.31.37,100.61.55,150.92.63,11.05,3.9,24.31,14.29,30.2Z"/>
        <path class="cls-3" d="M450.84,204.1c-9.28-62.26-18.56-124.53-27.9-186.78,2.51-9.11,6.5-14.43,11.69-15.99-23.47-1.18-46.86-1.57-70.36-1.19,4.79,1.61,8.57,6.44,11.13,14.44-9.13,60.04-18.17,120.09-27.17,180.15-2.25,9.37-6.29,15.66-12.34,18.86,12.81,0,25.61,0,38.42,0,1.88-13.96,3.76-27.92,5.65-41.87,11.86-.01,23.72.02,35.57.11,0-.23,0-.34,0-.57,1.86,14.11,3.72,28.23,5.58,42.34,12.89,0,25.79,0,38.68,0-3.72-1.98-6.77-5.17-8.95-9.49ZM383.69,142.75c4.55-35.19,9.12-70.37,13.72-105.55.24,0,.36,0,.61,0,4.63,35.22,9.24,70.45,13.82,105.68-9.38-.1-18.76-.15-28.15-.14Z"/>
      </g>
      <path class="cls-3" d="M755.01,233.04l-28.36-174.04c2.53-8.59,6.39-13.72,11.59-15.45h-69.58c4.79,1.6,8.46,6.06,11.05,13.52l-27.23,167.32c-2.26,8.72-6.33,14.58-12.38,17.58h38.42l5.66-38.88h35.42v-.53l5.66,39.42h38.75c-3.73-1.86-6.79-4.86-8.99-8.92ZM687.83,176.18l13.65-98.07h.53l13.92,98.07h-28.1Z"/>
    </g>
    <path class="cls-3" d="M359.87,248.62c-8.46,13.92-18.24,26.1-29.1,36.42l-5.06,4.8H22.97l-.17-.3c-1.98-17.72-10.57-32.74-22.51-40.92h359.58Z"/>
    <path class="cls-3" d="M763.66,248.62c-11.94,8.18-20.53,23.2-22.51,40.92l-.17.3h-302.68l-5.12-4.8c-10.86-10.32-20.58-22.5-29.1-36.42h359.58Z"/>
    <path class="cls-3" d="M396.22,248.62c-5.19-8.79-9.92-18.24-14.25-28.36-4.33,10.12-9.05,19.57-14.25,28.36-9.32,15.91-20.11,29.63-32.36,41.21,19.04,18.04,34.56,41.28,46.61,69.64,12.12-28.36,27.63-51.6,46.61-69.64-12.18-11.59-22.97-25.3-32.36-41.21ZM381.97,313.14l-17.78-23.3,17.78-23.24,17.84,23.24-17.84,23.3Z"/>
  </g>
  <text class="cls-2" transform="translate(15.25 347.11)"><tspan class="cls-4" x="0" y="0">CRONI</tspan><tspan class="cls-6" x="199.77" y="0">C</tspan><tspan class="cls-5" x="240.45" y="0">A</tspan><tspan class="cls-1" x="281.71" y="0">S</tspan></text>
  <text class="cls-2" transform="translate(433.24 347.28)"><tspan class="cls-7" x="0" y="0">D</tspan><tspan class="cls-4" x="42.38" y="0">A MANA</tspan></text>
</svg>